<?xml version="1.0" standalone="no"?>
<!DOCTYPE svg PUBLIC "-//W3C//DTD SVG 20010904//EN"
 "http://www.w3.org/TR/2001/REC-SVG-20010904/DTD/svg10.dtd">
<svg version="1.0" xmlns="http://www.w3.org/2000/svg"
 width="512.000000pt" height="512.000000pt" viewBox="0 0 512.000000 512.000000"
 preserveAspectRatio="xMidYMid meet">

<g transform="translate(0.000000,512.000000) scale(0.100000,-0.100000)"
fill="#000000" stroke="none">
<path d="M361 4274 c-170 -46 -314 -198 -350 -372 -15 -74 -16 -2609 0 -2684
27 -129 131 -269 245 -330 115 -62 -35 -58 2304 -58 2338 0 2189 -4 2304 58
68 36 165 135 198 202 61 122 58 54 58 1470 0 1416 3 1348 -58 1470 -33 67
-130 166 -198 202 -115 62 35 58 -2309 57 -1837 0 -2148 -2 -2194 -15z m4386
-158 c24 -10 40 -22 37 -27 -3 -5 -504 -454 -1114 -999 l-1110 -990 -1115 997
c-956 853 -1113 998 -1098 1007 61 35 67 35 2233 33 2046 -2 2127 -3 2167 -21z
m-3344 -1191 c609 -544 1119 -994 1132 -999 16 -6 34 -6 50 0 13 5 538 468
1166 1029 629 561 1148 1021 1155 1023 7 2 22 -22 36 -55 l23 -58 0 -1305 c0
-1282 0 -1306 -20 -1354 -11 -26 -24 -48 -28 -47 -4 0 -262 301 -573 668 -311
367 -581 685 -601 706 -42 45 -82 49 -118 12 -26 -25 -31 -54 -16 -83 5 -10
277 -334 605 -722 l596 -705 -52 -25 -53 -25 -2145 0 -2145 0 -57 27 c-32 15
-58 31 -58 35 0 4 272 330 605 723 333 393 608 726 612 739 14 53 -49 106
-101 85 -14 -5 -283 -314 -619 -712 -327 -387 -599 -704 -603 -705 -5 -1 -16
16 -24 38 -13 35 -15 208 -18 1300 -2 847 1 1282 8 1328 6 38 20 87 31 109
l20 39 42 -38 c23 -21 541 -483 1150 -1028z"/>
</g>
</svg>
